<svg width="500" height="500" viewBox="0 0 500 500" fill="none" xmlns="http://www.w3.org/2000/svg">
<path d="M449 256.48C448.312 257.977 447.318 259.313 446.08 260.4C445.142 261.183 444.036 261.741 442.849 262.03C441.661 262.32 440.423 262.333 439.23 262.07C436.932 261.698 434.796 260.654 433.09 259.07C431.469 257.601 429.733 256.263 427.9 255.07C425.914 253.82 423.691 252.996 421.37 252.65C419.74 252.38 418.11 252.2 416.48 252.04C414.285 251.866 412.177 251.102 410.38 249.83C409.006 248.956 407.924 247.691 407.273 246.198C406.623 244.705 406.434 243.051 406.73 241.45C406.983 239.641 407.692 237.926 408.791 236.467C409.889 235.008 411.341 233.853 413.01 233.11C414.77 232.24 416.65 231.58 418.48 230.83C419.31 230.49 420.14 230.17 420.97 229.83C422.388 229.161 423.641 228.188 424.64 226.98C425.25 226.31 425.86 225.64 426.48 224.98C427.565 223.797 428.94 222.917 430.47 222.428C431.999 221.938 433.629 221.856 435.2 222.19C437.808 222.599 440.253 223.716 442.27 225.42C443.407 226.303 444.315 227.446 444.919 228.753C445.523 230.059 445.804 231.492 445.74 232.93C445.74 233.82 445.68 234.72 445.59 235.6C445.351 237.819 445.717 240.062 446.65 242.09C447.48 244 448.3 246 449 248C449.832 250.151 450.006 252.5 449.5 254.75C449.37 255.31 449.16 255.89 449 256.48Z" fill="#F5F5F5"/>
<path d="M440.53 215.4C439.791 217.219 438.435 218.72 436.7 219.64C435.957 220.034 435.139 220.269 434.3 220.33C433.354 220.391 432.406 220.243 431.523 219.897C430.64 219.552 429.844 219.017 429.19 218.33C428.364 217.538 427.725 216.571 427.32 215.5C425.61 210.65 426.53 206.63 430.15 203.5C430.748 203.025 431.425 202.66 432.15 202.42C433.404 202.028 434.748 202.031 436 202.428C437.252 202.825 438.351 203.597 439.15 204.64C440.33 206.063 441.064 207.802 441.26 209.64C441.543 211.591 441.29 213.581 440.53 215.4Z" fill="#F5F5F5"/>
<path d="M458.34 221C457.635 222.286 456.681 223.42 455.535 224.335C454.388 225.25 453.071 225.928 451.66 226.33C450.804 226.564 449.918 226.675 449.03 226.66C447.73 226.683 446.457 226.283 445.404 225.52C444.351 224.757 443.574 223.673 443.19 222.43C442.726 220.867 442.786 219.196 443.36 217.67C443.867 216.196 444.685 214.849 445.758 213.719C446.831 212.589 448.135 211.703 449.58 211.12C450.789 210.594 452.103 210.351 453.42 210.41C454.692 210.417 455.929 210.824 456.957 211.572C457.985 212.32 458.752 213.372 459.15 214.58C459.621 216.114 459.586 217.758 459.05 219.27C458.83 220 458.51 220.63 458.34 221Z" fill="#F5F5F5"/>
<path d="M409.85 215.2C410.363 213.926 411.193 212.804 412.26 211.94C414.94 209.88 418.53 210.42 420.91 213.26C422.341 214.943 423.175 217.053 423.28 219.26C423.436 220.585 423.303 221.928 422.891 223.197C422.478 224.466 421.796 225.63 420.89 226.61C420.477 227.036 420.009 227.405 419.5 227.71C418.35 228.369 417.013 228.628 415.7 228.447C414.386 228.266 413.17 227.655 412.24 226.71C410.907 225.464 409.963 223.86 409.52 222.09C408.862 219.82 408.978 217.396 409.85 215.2Z" fill="#F5F5F5"/>
<path d="M464.25 238.48C463.554 239.957 462.53 241.256 461.256 242.278C459.983 243.301 458.493 244.019 456.9 244.38C455.559 244.749 454.142 244.749 452.8 244.38C451.889 244.158 451.047 243.714 450.349 243.088C449.651 242.462 449.119 241.672 448.8 240.79C448.217 239.23 448.25 237.507 448.89 235.97C449.464 234.416 450.397 233.019 451.614 231.895C452.83 230.77 454.296 229.95 455.89 229.5C457.783 228.83 459.862 228.919 461.69 229.75C462.4 230.07 463.034 230.537 463.551 231.119C464.068 231.702 464.456 232.387 464.69 233.13C465.204 234.907 465.047 236.811 464.25 238.48Z" fill="#F5F5F5"/>
<path d="M389 135C387.317 137.329 385.16 139.275 382.67 140.71C378.77 143 374.6 142.71 370.37 141.23C366.559 139.822 363.25 137.317 360.86 134.03C358.586 130.968 356.075 128.089 353.35 125.42C350.379 122.603 346.854 120.434 343 119.05C340.31 118.05 337.57 117.16 334.83 116.33C331.131 115.286 327.783 113.262 325.14 110.47C320.86 105.82 319.62 100.67 321.75 94.88C324.11 88.47 328.75 84.51 335.35 82.75C338.66 81.86 342.11 81.37 345.49 80.75L350.09 79.87C352.754 79.2117 355.237 77.9683 357.36 76.23C358.63 75.3 359.91 74.36 361.19 73.44C366.02 69.97 371.33 69.5 377.07 71.64C381.398 73.2245 385.204 75.9719 388.07 79.58C389.711 81.4737 390.875 83.7331 391.463 86.169C392.051 88.6048 392.047 91.1461 391.45 93.58C391.1 95.1 390.74 96.58 390.27 98.1C389.111 101.822 388.976 105.788 389.88 109.58C390.68 113.18 391.41 116.8 391.96 120.44C392.663 124.402 392.165 128.483 390.53 132.16C390.08 133.13 389.52 134.05 389 135Z" fill="#EBEBEB"/>
<path d="M388.56 61.77C386.676 64.6428 383.846 66.7656 380.56 67.77C379.154 68.1919 377.676 68.3146 376.22 68.13C374.578 67.9203 373.002 67.3521 371.604 66.4655C370.206 65.579 369.02 64.3959 368.13 63C366.977 61.3681 366.214 59.4933 365.9 57.52C364.62 48.63 367.57 42.06 374.83 37.95C376.035 37.3345 377.344 36.948 378.69 36.81C383.2 36.18 387.6 38.63 389.95 42.99C391.482 45.833 392.146 49.0631 391.86 52.28C391.62 55.6797 390.481 58.9545 388.56 61.77Z" fill="#EBEBEB"/>
<path d="M417.12 77.5C413.49 81.42 409.41 83.93 403.87 84.36C402.322 84.4674 400.766 84.3529 399.25 84.0199C397.016 83.6173 394.974 82.4991 393.432 80.8341C391.89 79.1692 390.931 77.0477 390.7 74.79C390.434 71.9569 391.105 69.1149 392.61 66.6999C393.981 64.3512 395.841 62.3243 398.063 60.7561C400.285 59.1879 402.818 58.115 405.49 57.61C407.74 57.1158 410.074 57.1466 412.31 57.7C414.483 58.1451 416.462 59.2623 417.966 60.8936C419.47 62.5248 420.423 64.5875 420.69 66.79C420.978 69.5777 420.357 72.3838 418.92 74.79C418.31 75.88 417.55 76.87 417.12 77.5Z" fill="#EBEBEB"/>
<path d="M336.09 51C337.394 48.9853 339.2 47.3448 341.33 46.24C346.62 43.62 352.57 45.77 355.69 51.44C357.536 54.7911 358.239 58.6534 357.69 62.44C357.06 67.29 355.1 71.38 351.08 74.21C350.23 74.7982 349.305 75.2691 348.33 75.61C343.96 77.17 339.25 75.51 336.26 71.38C334.4 68.7923 333.327 65.7227 333.17 62.54C332.849 58.477 333.875 54.4214 336.09 51Z" fill="#EBEBEB"/>
<path d="M421.29 109.39C419.599 111.686 417.405 113.565 414.876 114.884C412.348 116.203 409.551 116.927 406.7 117C404.277 117.149 401.859 116.641 399.7 115.53C398.219 114.834 396.931 113.786 395.949 112.476C394.968 111.167 394.322 109.637 394.07 108.02C393.614 105.148 394.256 102.209 395.87 99.7899C397.372 97.3259 399.434 95.2516 401.89 93.7362C404.345 92.2208 407.124 91.3072 410 91.0699C413.468 90.5507 417.001 91.4124 419.84 93.4699C420.961 94.2519 421.901 95.2638 422.6 96.4381C423.298 97.6124 423.738 98.9221 423.89 100.28C424.29 103.6 423.22 106.4 421.29 109.39Z" fill="#EBEBEB"/>
<path d="M261.79 109.54C262.484 111.353 262.787 113.292 262.68 115.23C262.54 118.23 260.86 120.54 258.44 122.37C256.238 124.007 253.6 124.954 250.86 125.09C248.292 125.242 245.741 125.6 243.23 126.16C240.535 126.798 238.004 127.993 235.8 129.67C234.24 130.81 232.73 132.04 231.25 133.28C229.295 134.986 226.914 136.13 224.36 136.59C220.15 137.3 216.79 136.1 214.3 132.76C212.986 131.056 212.128 129.046 211.806 126.918C211.484 124.791 211.709 122.616 212.46 120.6C213.18 118.4 214.17 116.27 215.05 114.11C215.44 113.11 215.86 112.11 216.25 111.19C216.853 109.44 217.064 107.58 216.87 105.74C216.81 104.67 216.75 103.61 216.71 102.54C216.605 100.651 216.997 98.7665 217.846 97.0752C218.695 95.384 219.972 93.9446 221.55 92.9C224.045 91.0416 227.003 89.9036 230.1 89.61C231.78 89.3777 233.492 89.5536 235.09 90.1228C236.688 90.692 238.125 91.6377 239.28 92.88C240.01 93.64 240.74 94.4 241.4 95.21C243.077 97.2404 245.271 98.7811 247.75 99.67C250.08 100.54 252.39 101.47 254.65 102.5C257.152 103.559 259.278 105.346 260.75 107.63C261.13 108.24 261.44 108.9 261.79 109.54Z" fill="#F5F5F5"/>
<path d="M220.23 82.7799C221.149 84.9064 221.294 87.2877 220.64 89.51C220.362 90.4628 219.885 91.3456 219.24 92.0999C218.515 92.946 217.614 93.6234 216.6 94.0846C215.586 94.5459 214.484 94.7798 213.37 94.7699C212.022 94.821 210.681 94.561 209.45 94.01C203.95 91.46 201.33 87.3599 201.68 81.7399C201.775 80.8333 202.036 79.952 202.45 79.14C203.153 77.7555 204.266 76.6213 205.636 75.8913C207.007 75.1613 208.569 74.871 210.11 75.0599C212.279 75.2424 214.348 76.0558 216.06 77.4C217.903 78.7911 219.342 80.6481 220.23 82.7799Z" fill="#F5F5F5"/>
<path d="M239.66 72.44C240.161 74.0905 240.33 75.8237 240.159 77.5399C239.987 79.2561 239.478 80.9214 238.66 82.44C238.148 83.356 237.508 84.1944 236.76 84.93C235.708 86.0424 234.322 86.7825 232.812 87.0386C231.303 87.2948 229.75 87.0531 228.39 86.35C226.692 85.4588 225.333 84.0364 224.52 82.3C223.7 80.657 223.24 78.8574 223.173 77.0222C223.106 75.187 223.432 73.3587 224.13 71.66C224.681 70.2056 225.56 68.8983 226.7 67.84C227.752 66.773 229.113 66.0644 230.59 65.8149C232.068 65.5654 233.586 65.7876 234.93 66.45C236.62 67.3278 237.979 68.7318 238.8 70.45C239.18 71.17 239.45 72 239.66 72.44Z" fill="#F5F5F5"/>
<path d="M194.77 108.46C194.116 106.978 193.857 105.352 194.02 103.74C194.49 99.7399 197.9 97.2099 202.26 97.5399C204.85 97.7365 207.306 98.7682 209.26 100.48C210.502 101.444 211.521 102.665 212.248 104.06C212.975 105.454 213.391 106.989 213.47 108.56C213.485 109.256 213.411 109.952 213.25 110.63C212.853 112.142 211.965 113.479 210.725 114.432C209.485 115.384 207.963 115.897 206.4 115.89C204.252 115.99 202.122 115.462 200.27 114.37C197.833 113.063 195.899 110.984 194.77 108.46Z" fill="#F5F5F5"/>
<path d="M259.22 81.85C259.883 83.6463 260.13 85.5699 259.941 87.4755C259.752 89.3811 259.133 91.2188 258.13 92.85C257.315 94.2746 256.135 95.4554 254.71 96.27C253.772 96.8534 252.704 97.196 251.601 97.2676C250.499 97.3391 249.396 97.1373 248.39 96.68C246.599 95.9 245.17 94.4709 244.39 92.68C243.554 90.9236 243.145 88.9947 243.196 87.0503C243.246 85.1059 243.755 83.2008 244.68 81.49C245.665 79.3321 247.462 77.6502 249.68 76.81C250.53 76.4638 251.443 76.3017 252.36 76.3345C253.277 76.3672 254.177 76.5941 255 77C256.962 78.0344 258.467 79.764 259.22 81.85Z" fill="#F5F5F5"/>
<path d="M140.35 224.16C141.129 226.189 141.47 228.36 141.35 230.53C141.2 233.95 139.35 236.53 136.62 238.53C134.159 240.378 131.204 241.454 128.13 241.62C125.249 241.801 122.386 242.212 119.57 242.85C116.551 243.589 113.721 244.951 111.26 246.85C109.51 248.14 107.83 249.52 106.17 250.92C103.983 252.839 101.32 254.134 98.4601 254.67C93.7401 255.48 89.9601 254.15 87.1601 250.41C85.6758 248.506 84.7021 246.255 84.3311 243.87C83.9601 241.485 84.2041 239.044 85.0401 236.78C85.8401 234.31 86.9401 231.92 87.9101 229.49C88.3501 228.39 88.8101 227.3 89.2401 226.2C89.9167 224.239 90.1489 222.152 89.9201 220.09C89.8501 218.89 89.7801 217.7 89.7201 216.5C89.5101 212.01 91.3901 208.44 95.1101 205.67C97.9 203.57 101.215 202.279 104.69 201.94C106.574 201.671 108.495 201.861 110.289 202.493C112.084 203.125 113.7 204.18 115 205.57C115.82 206.42 116.64 207.27 117.39 208.17C119.276 210.449 121.743 212.177 124.53 213.17C127.15 214.17 129.75 215.17 132.28 216.31C135.089 217.489 137.479 219.485 139.14 222.04C139.61 222.71 140 223.44 140.35 224.16Z" fill="#F5F5F5"/>
<path d="M93.6203 194.32C94.6627 196.702 94.8362 199.374 94.1103 201.87C93.8016 202.939 93.27 203.931 92.5503 204.78C91.7393 205.731 90.7299 206.492 89.5931 207.01C88.4563 207.528 87.2196 207.791 85.9703 207.78C84.4597 207.84 82.9554 207.556 81.5703 206.95C75.4003 204.11 72.4403 199.53 72.8003 193.22C72.911 192.203 73.2023 191.215 73.6603 190.3C74.4413 188.743 75.6829 187.464 77.2162 186.638C78.7495 185.811 80.5003 185.477 82.2303 185.68C84.6665 185.882 86.9912 186.789 88.9203 188.29C90.9951 189.847 92.6175 191.928 93.6203 194.32Z" fill="#F5F5F5"/>
<path d="M115.36 182.64C115.932 184.493 116.131 186.442 115.946 188.373C115.761 190.304 115.194 192.179 114.28 193.89C113.707 194.914 112.993 195.854 112.16 196.68C110.986 197.933 109.436 198.771 107.744 199.067C106.052 199.363 104.31 199.101 102.78 198.32C100.864 197.331 99.3307 195.734 98.4199 193.78C97.4907 191.942 96.967 189.925 96.8842 187.867C96.8014 185.809 97.1614 183.757 97.9399 181.85C98.5453 180.216 99.5248 178.747 100.8 177.56C101.977 176.37 103.498 175.579 105.149 175.3C106.799 175.02 108.496 175.265 110 176C111.889 176.963 113.418 178.51 114.36 180.41C114.83 181.22 115.14 182.11 115.36 182.64Z" fill="#F5F5F5"/>
<path d="M65.1801 223.24C64.4333 221.583 64.1333 219.759 64.3101 217.95C64.8201 213.51 68.6301 210.61 73.5201 210.95C76.4252 211.152 79.1851 212.296 81.3801 214.21C82.7729 215.281 83.9189 216.639 84.7403 218.191C85.5616 219.744 86.0391 221.456 86.1401 223.21C86.1644 223.994 86.0837 224.777 85.9001 225.54C85.0901 228.96 82.1001 231.27 78.2401 231.47C75.8306 231.588 73.4381 231.008 71.3501 229.8C68.6303 228.348 66.4625 226.043 65.1801 223.24Z" fill="#F5F5F5"/>
<path d="M137.35 193.1C138.109 195.121 138.397 197.288 138.192 199.436C137.988 201.585 137.296 203.659 136.17 205.5C135.267 207.104 133.947 208.434 132.35 209.35C131.299 210.007 130.103 210.396 128.866 210.481C127.63 210.567 126.391 210.346 125.26 209.84C123.246 208.949 121.642 207.332 120.77 205.31C119.826 203.342 119.36 201.179 119.409 198.996C119.457 196.814 120.02 194.674 121.05 192.75C122.151 190.335 124.154 188.447 126.63 187.49C127.588 187.097 128.62 186.914 129.655 186.954C130.69 186.993 131.704 187.255 132.63 187.72C134.813 188.87 136.494 190.786 137.35 193.1Z" fill="#F5F5F5"/>
<path d="M135.91 136C135.268 138.455 134.113 140.745 132.52 142.72C130.04 145.84 126.52 146.96 122.52 147.05C118.942 147.108 115.427 146.102 112.42 144.16C109.574 142.365 106.592 140.797 103.5 139.47C100.161 138.076 96.5677 137.395 92.9502 137.47C90.4202 137.47 87.8902 137.65 85.3702 137.83C81.9964 138.151 78.5988 137.55 75.5402 136.09C70.5402 133.63 67.8902 129.79 67.8002 124.36C67.7002 118.36 70.2602 113.6 75.1202 110.05C77.5702 108.27 80.2402 106.77 82.8202 105.15C83.9802 104.42 85.1602 103.7 86.3202 102.96C88.2952 101.571 89.9407 99.7653 91.1402 97.67C91.8902 96.49 92.6402 95.31 93.4002 94.15C96.2702 89.76 100.49 87.69 105.89 87.63C109.949 87.5457 113.953 88.5838 117.46 90.63C119.419 91.6666 121.1 93.1588 122.362 94.9809C123.624 96.803 124.429 98.9016 124.71 101.1C124.9 102.46 125.09 103.83 125.17 105.19C125.403 108.621 126.553 111.926 128.5 114.76C130.31 117.46 132.06 120.21 133.67 123.02C135.506 126.058 136.391 129.575 136.21 133.12C136.2 134.12 136 135.06 135.91 136Z" fill="#EBEBEB"/>
<path d="M112.26 75.93C111.611 78.8832 109.952 81.5176 107.57 83.38C106.546 84.1714 105.367 84.7402 104.11 85.05C102.695 85.3987 101.221 85.4316 99.7913 85.1465C98.362 84.8613 97.0131 84.265 95.8401 83.4C94.3736 82.426 93.149 81.1296 92.2601 79.61C88.3801 72.71 88.7201 66.37 93.3801 60.67C94.1753 59.7825 95.128 59.0501 96.1901 58.51C97.9878 57.5724 100.031 57.2123 102.041 57.479C104.051 57.7457 105.929 58.626 107.42 60C109.572 61.8474 111.142 64.2788 111.94 67C112.841 69.8948 112.952 72.978 112.26 75.93Z" fill="#EBEBEB"/>
<path d="M140.74 79.7799C139.01 84.1599 136.45 87.5199 132.03 89.6299C130.791 90.2142 129.474 90.6183 128.12 90.8299C126.149 91.2167 124.106 90.9494 122.301 90.0685C120.496 89.1877 119.028 87.7415 118.12 85.9499C116.998 83.7091 116.647 81.1608 117.12 78.6999C117.503 76.3321 118.388 74.0737 119.716 72.0764C121.045 70.079 122.785 68.389 124.82 67.1199C126.521 65.9859 128.462 65.2603 130.49 64.9999C132.419 64.6724 134.402 64.9608 136.157 65.8243C137.913 66.6877 139.352 68.0823 140.27 69.8099C141.406 72.024 141.789 74.5485 141.36 76.9999C141.21 78.0699 140.89 79.1199 140.74 79.7799Z" fill="#EBEBEB"/>
<path d="M65.6802 83.7399C66.1137 81.6685 67.0787 79.7456 68.4802 78.1599C71.9902 74.3199 77.5702 74.1599 81.9402 77.8699C84.5384 80.0436 86.3541 83.0077 87.1102 86.3099C88.1102 90.4999 87.8302 94.4799 85.4202 98.0899C84.9079 98.8337 84.2993 99.5062 83.6102 100.09C80.5002 102.76 76.1102 102.89 72.3302 100.45C69.9924 98.9148 68.1429 96.7426 67.0002 94.1899C65.4202 90.9473 64.9561 87.2735 65.6802 83.7399Z" fill="#EBEBEB"/>
<path d="M154.31 104.68C153.645 107.103 152.436 109.341 150.774 111.225C149.111 113.109 147.041 114.588 144.72 115.55C142.77 116.433 140.619 116.778 138.49 116.55C137.052 116.45 135.662 115.997 134.441 115.231C133.22 114.465 132.206 113.411 131.49 112.16C130.198 109.945 129.791 107.323 130.35 104.82C130.805 102.32 131.843 99.9629 133.381 97.9403C134.919 95.9176 136.913 94.2866 139.2 93.18C141.89 91.6554 145.07 91.2427 148.06 92.03C149.228 92.3189 150.321 92.8525 151.268 93.5955C152.214 94.3385 152.992 95.2739 153.55 96.34C154.93 99 155 101.6 154.31 104.68Z" fill="#EBEBEB"/>
<path d="M470.2 456.79C470.2 456.93 371.61 457.05 250.01 457.05C128.41 457.05 29.7998 456.93 29.7998 456.79C29.7998 456.65 128.37 456.53 250.01 456.53C371.65 456.53 470.2 456.64 470.2 456.79Z" fill="#263238"/>
<path d="M218.45 357.32C217.407 355.208 215.987 353.303 214.26 351.7C214.26 351.7 213.48 342.6 209.88 337.23C206.28 331.86 200.88 327.52 194.4 331.62L195.27 331.12C192 328.61 186.74 328.34 182.85 329.73C180.908 330.39 179.107 331.407 177.54 332.73C174.613 335.276 172.088 338.249 170.05 341.55C170.05 341.55 163.71 341.95 161.2 351.96C159.803 358.186 158.735 364.481 158 370.82C158 370.82 158.75 389.17 159.84 394.7C160.93 400.23 157.36 411.91 157.16 414.26C156.96 416.61 155.85 418.39 154.28 427.63C152.71 436.87 149.93 456.54 149.93 456.54H206.35C206.35 456.54 207.76 430.97 207.62 428.17C207.705 421.448 208.442 414.75 209.82 408.17C211.38 401.7 217.42 381.3 217.42 381.3C219.63 371.74 220.28 360.93 218.45 357.32Z" fill="#455A64"/>
<g opacity="0.3">
<path d="M174.58 353.27L167.43 352.91C165.023 354.792 163.225 357.341 162.26 360.24C162.03 360.77 161.911 361.342 161.911 361.92C161.911 362.498 162.03 363.07 162.26 363.6C162.99 364.9 164.71 365.22 166.2 365.27C168.472 365.411 170.746 365.006 172.83 364.09C173.865 363.622 174.783 362.931 175.52 362.067C176.256 361.203 176.793 360.186 177.09 359.09C177.353 357.979 177.251 356.813 176.799 355.764C176.346 354.716 175.568 353.841 174.58 353.27Z" fill="black"/>
</g>
<g opacity="0.3">
<path d="M208.14 347.06L205.64 345.06L197.05 343.85C196.37 343.694 195.661 343.715 194.99 343.91C194.59 344.106 194.237 344.386 193.956 344.731C193.674 345.076 193.471 345.478 193.36 345.91C193.006 347.073 192.979 348.311 193.28 349.489C193.582 350.667 194.201 351.74 195.07 352.59C195.961 353.418 197.016 354.05 198.167 354.445C199.318 354.839 200.538 354.988 201.75 354.88C203.717 354.777 205.573 353.938 206.95 352.53C207.63 351.814 208.101 350.926 208.311 349.961C208.521 348.997 208.462 347.993 208.14 347.06Z" fill="black"/>
</g>
<path d="M201.21 333.54C202.375 333.401 203.553 333.662 204.55 334.28C206.38 335.38 209.49 337.71 209.42 340.9C209.33 345.41 209.2 350.68 203.84 351.9C198.48 353.12 191.84 349.39 194.74 341.69C197 335.69 198.93 333.85 201.21 333.54Z" fill="#263238"/>
<g opacity="0.3">
<path d="M189.62 343.72L185.93 339.29C184.73 339.013 183.502 338.879 182.27 338.89C181.029 338.905 179.834 339.362 178.9 340.18C177.961 341.168 177.432 342.477 177.42 343.84C177.338 345.148 177.585 346.456 178.139 347.644C178.693 348.832 179.536 349.862 180.59 350.64C181.668 351.388 182.946 351.793 184.257 351.802C185.569 351.811 186.853 351.423 187.94 350.69C188.991 349.908 189.735 348.783 190.042 347.509C190.349 346.236 190.2 344.895 189.62 343.72Z" fill="black"/>
</g>
<path d="M187 331.18C187.911 330.782 188.92 330.665 189.898 330.843C190.876 331.021 191.778 331.487 192.49 332.18C192.708 332.381 192.872 332.631 192.97 332.91C193.26 334.02 192.56 342.67 188.05 347.1C183.54 351.53 177.55 345.99 178.05 341.45C178.41 337.74 182.69 333 187 331.18Z" fill="#263238"/>
<path d="M171.65 345.34C171.65 345.34 168.65 342.26 165.65 347.73C162.65 353.2 161.65 361.3 164.8 361.84C167.95 362.38 175.19 360.62 175.47 356.23C175.75 351.84 173.42 346.31 171.65 345.34Z" fill="#263238"/>
<g opacity="0.3">
<path d="M211.57 363.14C209.697 361.689 207.736 360.353 205.7 359.14C205.239 358.812 204.702 358.606 204.14 358.54C202.89 358.54 202.01 359.77 201.63 360.95C201.247 362.1 201.11 363.317 201.229 364.524C201.347 365.73 201.719 366.897 202.32 367.95C202.941 369.005 203.815 369.888 204.862 370.522C205.909 371.156 207.098 371.519 208.32 371.58C209.544 371.628 210.756 371.33 211.817 370.72C212.879 370.11 213.746 369.212 214.32 368.13L211.57 363.14Z" fill="black"/>
</g>
<path d="M217.94 361.2C217.954 359.79 217.584 358.404 216.87 357.188C216.155 355.973 215.124 354.975 213.886 354.3C212.648 353.626 211.249 353.302 209.841 353.362C208.433 353.422 207.067 353.863 205.89 354.64C205.68 354.79 205.47 354.95 205.27 355.12C202.27 357.74 201.72 363 204.33 365.75C206.94 368.5 212.57 373.41 216.5 366.18C217.364 364.656 217.857 362.95 217.94 361.2Z" fill="#263238"/>
<g opacity="0.3">
<path d="M187.7 378.73C182.996 377.383 177.968 377.737 173.5 379.73C172.154 380.232 170.995 381.136 170.18 382.32C168.71 384.87 170.46 388.32 173.08 389.65C175.7 390.98 178.82 390.78 181.74 390.43C184.66 390.08 187.74 389.63 190.49 390.56C192.092 391.206 193.631 391.996 195.09 392.92C196.557 393.842 198.258 394.321 199.99 394.3C200.85 394.267 201.677 393.957 202.347 393.417C203.017 392.876 203.495 392.134 203.71 391.3L187.7 378.73Z" fill="black"/>
</g>
<path d="M207.25 378.45C206.14 376.293 204.427 374.504 202.32 373.3C200.32 372.13 197.26 370.03 195.68 367.3C193.22 363.1 193.78 359.92 188.82 359.65C183.86 359.38 184.19 363.71 178.13 365.7C168.44 368.87 166.32 371.21 165.39 375.48C164.46 379.75 165.47 381.85 167.88 384.67C170.29 387.49 178.34 383.17 184.79 383.4C191.24 383.63 196.11 390.33 200.02 392.24C203.93 394.15 207.72 390.24 208.34 384.12C208.517 382.165 208.139 380.2 207.25 378.45Z" fill="#263238"/>
<path d="M183.57 441.29C185.77 440.92 188.27 440.29 189.28 438.36C189.603 437.594 189.733 436.761 189.66 435.933C189.586 435.105 189.312 434.308 188.86 433.61C186.96 430.28 182.86 428.61 179.05 428.83C177.091 428.902 175.195 429.549 173.6 430.69C172.808 431.27 172.156 432.02 171.692 432.885C171.228 433.751 170.964 434.709 170.92 435.69C170.88 436.398 171.034 437.104 171.365 437.731C171.697 438.359 172.193 438.884 172.8 439.25C173.947 439.642 175.168 439.765 176.37 439.61C178.514 439.591 180.624 440.147 182.48 441.22" fill="#263238"/>
<path d="M170.79 409.22C171.203 409.112 171.625 409.038 172.05 409C172.88 408.87 174.05 408.66 175.59 408.3C179.734 407.315 183.692 405.667 187.31 403.42L188.44 402.72L187.61 403.72L183.21 409.28C183.04 409.497 182.92 409.75 182.86 410.02C182.839 410.119 182.853 410.223 182.9 410.312C182.948 410.402 183.026 410.472 183.12 410.51C183.713 410.55 184.308 410.444 184.85 410.2C187.535 409.331 190.003 407.899 192.09 406L193.35 404.85L192.49 406.32C191.524 407.967 190.739 409.714 190.15 411.53C189.868 412.384 189.631 413.252 189.44 414.13C189.217 414.944 189.109 415.786 189.12 416.63C189.128 416.999 189.266 417.353 189.51 417.63C189.632 417.745 189.782 417.827 189.944 417.869C190.107 417.911 190.277 417.911 190.44 417.87C191.136 417.618 191.775 417.231 192.32 416.73C193.49 415.81 194.54 414.92 195.46 414.07C196.912 412.728 198.287 411.306 199.58 409.81L200.58 408.6C200.693 408.451 200.82 408.313 200.96 408.19C200.877 408.354 200.777 408.508 200.66 408.65C200.45 408.95 200.13 409.39 199.66 409.93C198.421 411.477 197.085 412.943 195.66 414.32C194.74 415.19 193.66 416.11 192.53 417.05C191.954 417.597 191.274 418.022 190.53 418.3C190.297 418.355 190.053 418.352 189.821 418.291C189.589 418.23 189.376 418.113 189.2 417.95C188.875 417.604 188.684 417.154 188.66 416.68C188.643 415.787 188.747 414.895 188.97 414.03C189.16 413.16 189.39 412.27 189.68 411.37C190.277 409.52 191.071 407.739 192.05 406.06L192.44 406.38C191.305 407.416 190.057 408.321 188.72 409.08C187.541 409.74 186.298 410.279 185.01 410.69L184.01 410.97C183.652 411.081 183.268 411.081 182.91 410.97C182.714 410.893 182.549 410.753 182.442 410.572C182.335 410.391 182.292 410.179 182.32 409.97C182.382 409.605 182.533 409.262 182.76 408.97L187.21 403.42L187.51 403.76C183.842 406.01 179.818 407.62 175.61 408.52C174.428 408.774 173.233 408.964 172.03 409.09C171.61 409.14 171.29 409.15 171.08 409.17L170.79 409.22Z" fill="#263238"/>
<path d="M111 312.07C113.343 313.695 115.375 315.727 117 318.07C119.87 322.12 121.26 335.5 120.57 347.63C120.57 347.63 117.57 373.88 117 382.14C116.687 390.499 117.16 398.869 118.41 407.14C119.14 410.54 122.1 456.42 122.1 456.42H56.2598C56.2598 456.42 55.5298 429.23 55.5398 417.58C55.5498 405.93 56.5398 403.5 56.2598 400.58C55.9798 397.66 57.8998 382.58 55.5098 376.07C53.1198 369.56 48.5698 347.18 48.5698 347.18C48.5698 347.18 45.6398 332.68 48.5698 323.41C51.4998 314.14 53.1198 317.33 53.1198 317.33C53.1198 317.33 58.9998 302.79 63.9998 296.48C65.5624 294.544 67.4758 292.919 69.6398 291.69C71.7666 290.466 74.1751 289.814 76.6292 289.8C79.0834 289.786 81.4991 290.41 83.6398 291.61C90.4498 285.23 97.6398 289.44 102.97 295.26C108.3 301.08 111 312.07 111 312.07Z" fill="#FF725E"/>
<g opacity="0.3">
<path d="M62.1898 322.25C63.5125 322.748 64.6409 323.656 65.4094 324.842C66.1779 326.028 66.5461 327.429 66.4598 328.84C66.3247 330.242 65.8807 331.597 65.1597 332.808C64.4387 334.018 63.4586 335.053 62.2898 335.84C59.9287 337.403 57.2257 338.374 54.4098 338.67C52.5698 338.92 50.4098 338.89 49.2298 337.45C48.8379 336.848 48.5751 336.17 48.4581 335.461C48.341 334.752 48.3723 334.026 48.5498 333.33C49.1232 329.575 50.7971 326.074 53.3598 323.27" fill="black"/>
</g>
<g opacity="0.3">
<path d="M102 307.66C102.575 308.73 102.848 309.937 102.789 311.151C102.731 312.364 102.344 313.539 101.67 314.55C100.273 316.561 98.1699 317.971 95.7796 318.5C94.3192 318.887 92.7934 318.961 91.3025 318.716C89.8116 318.472 88.3894 317.914 87.1296 317.08C85.883 316.223 84.8973 315.038 84.2815 313.657C83.6656 312.275 83.4435 310.75 83.6396 309.25C83.6953 308.709 83.866 308.187 84.1403 307.718C84.4145 307.249 84.7859 306.844 85.2296 306.53C86.0093 306.149 86.8732 305.974 87.7396 306.02L98.5196 305.73" fill="black"/>
</g>
<path d="M93.22 292.17C93.22 292.17 101.48 294.3 102.31 299.84C103.14 305.38 104.08 311.84 97.76 314.48C91.44 317.12 82.59 313.89 84.48 303.86C86.37 293.83 89.2 292.29 93.22 292.17Z" fill="#263238"/>
<g opacity="0.3">
<path d="M78.6299 307.43C79.5779 308.751 80.0365 310.361 79.927 311.983C79.8175 313.605 79.1468 315.138 78.0299 316.32C76.8489 317.437 75.3594 318.174 73.7545 318.435C72.1496 318.695 70.5035 318.467 69.0299 317.78C67.5756 317.047 66.3285 315.96 65.4026 314.62C64.4767 313.28 63.9016 311.73 63.7299 310.11C63.465 308.438 63.8399 306.728 64.7799 305.32C65.7428 304.114 67.1045 303.291 68.6199 303C70.1239 302.73 71.6546 302.639 73.1799 302.73" fill="black"/>
</g>
<path d="M76.2196 291.11C76.2196 291.11 79.8796 292.17 80.4696 293.47C81.0596 294.77 81.9996 305.47 77.3996 311.88C72.7996 318.29 64.2996 312.71 63.9396 307.05C63.5796 301.39 70.0796 292.53 76.2196 291.11Z" fill="#263238"/>
<path d="M54.9996 312.48C54.9996 312.48 52.6396 310 50.1596 317.31C47.6796 324.62 47.9996 334.78 51.9996 334.78C55.9996 334.78 64.4896 331.13 63.9096 325.7C63.3296 320.27 57.3296 313.3 54.9996 312.48Z" fill="#263238"/>
<g opacity="0.3">
<path d="M113.87 332.25C113.395 333.686 112.527 334.961 111.363 335.928C110.2 336.895 108.789 337.516 107.29 337.72C105.788 337.888 104.267 337.682 102.863 337.122C101.459 336.562 100.215 335.665 99.2399 334.51C98.2833 333.343 97.5832 331.987 97.1852 330.531C96.7872 329.075 96.7002 327.552 96.9299 326.06C97.1599 324.52 97.9299 322.79 99.5099 322.58C100.199 322.549 100.886 322.686 101.51 322.98C104.247 324.043 106.919 325.268 109.51 326.65" fill="black"/>
</g>
<path d="M110.1 314.13C111.16 314.01 119.54 319.68 116.24 329.35C112.94 339.02 105.02 334.19 101.24 331.35C97.4598 328.51 96.7598 321.67 100.18 318.13C103.6 314.59 110.1 314.13 110.1 314.13Z" fill="#263238"/>
<g opacity="0.3">
<path d="M62.8496 358.77C63.592 357.143 64.8221 355.787 66.3696 354.89C71.4347 351.531 77.5191 350.058 83.5596 350.73L105.79 362.73C105.79 364.87 103.95 366.73 101.87 367.21C99.7491 367.603 97.56 367.37 95.5696 366.54C93.5905 365.715 91.5426 365.066 89.4496 364.6C85.8296 364.04 82.2096 365.23 78.6996 366.27C75.1896 367.31 71.4196 368.21 67.9296 367.12C64.4396 366.03 61.5696 362.19 62.8496 358.77Z" fill="black"/>
</g>
<path d="M102.9 341.87C103.49 342.58 109.51 346.08 109.98 353.08C110.49 360.68 106.67 366.3 101.48 364.77C96.2898 363.24 88.9098 356 80.9998 357.09C73.0898 358.18 64.0898 365.09 60.5498 362.17C57.0098 359.25 55.3498 356.86 55.5498 351.43C55.7498 346 57.9098 342.69 69.1298 336.79C76.1298 333.1 74.8198 327.87 80.9598 327.16C87.0998 326.45 87.0698 330.47 90.9598 335.11C94.8498 339.75 102.9 341.87 102.9 341.87Z" fill="#263238"/>
<path d="M111.29 313.66C112.03 311.35 111.13 307.81 109.71 305.45C109.628 305.314 109.511 305.202 109.37 305.128C109.23 305.053 109.071 305.019 108.913 305.028C108.754 305.038 108.601 305.09 108.47 305.18C108.339 305.271 108.235 305.395 108.17 305.54C107.067 308.166 106.654 311.03 106.97 313.86" fill="#E0E0E0"/>
<path d="M107 313.86C106.733 312.959 106.641 312.015 106.73 311.08C106.769 310.07 106.9 309.066 107.12 308.08C107.25 307.52 107.41 306.94 107.61 306.34C107.72 306.05 107.84 305.75 107.97 305.45C108.056 305.256 108.196 305.09 108.373 304.974C108.551 304.857 108.758 304.793 108.97 304.79C109.175 304.794 109.375 304.851 109.55 304.957C109.726 305.062 109.87 305.211 109.97 305.39C110.13 305.67 110.28 305.96 110.42 306.24C110.686 306.783 110.913 307.345 111.1 307.92C111.425 308.891 111.63 309.899 111.71 310.92C111.847 311.864 111.705 312.827 111.3 313.69C111.404 312.78 111.404 311.86 111.3 310.95C111.174 309.971 110.942 309.009 110.61 308.08C110.412 307.53 110.182 306.993 109.92 306.47C109.79 306.2 109.64 305.93 109.48 305.66C109.432 305.554 109.352 305.464 109.253 305.403C109.153 305.343 109.037 305.314 108.92 305.32C108.806 305.32 108.694 305.353 108.598 305.415C108.502 305.477 108.426 305.566 108.38 305.67C108.25 305.95 108.14 306.23 108.03 306.52C107.835 307.068 107.668 307.625 107.53 308.19C107.294 309.156 107.13 310.139 107.04 311.13C106.91 312.8 107.06 313.85 107 313.86Z" fill="#263238"/>
<path d="M108.79 305.69C109.466 306.821 109.87 308.094 109.969 309.408C110.068 310.722 109.859 312.041 109.36 313.26C109.21 313.26 109.62 311.53 109.45 309.45C109.28 307.37 108.65 305.75 108.79 305.69Z" fill="#263238"/>
<path d="M91.9397 292.66C92.6697 290.35 91.7797 286.81 90.3497 284.45C90.268 284.314 90.1505 284.202 90.01 284.128C89.8694 284.053 89.7112 284.019 89.5524 284.028C89.3937 284.038 89.2405 284.09 89.1096 284.18C88.9786 284.271 88.8749 284.395 88.8097 284.54C87.705 287.165 87.2952 290.031 87.6197 292.86" fill="#E0E0E0"/>
<path d="M87.6198 292.86C87.3407 291.962 87.2488 291.015 87.3498 290.08C87.3892 289.071 87.5163 288.067 87.7298 287.08C87.8621 286.491 88.029 285.91 88.2298 285.34C88.3298 285.04 88.4498 284.74 88.5798 284.44C88.6701 284.255 88.8093 284.098 88.9824 283.986C89.1554 283.874 89.3558 283.812 89.5617 283.806C89.7677 283.8 89.9714 283.85 90.1508 283.951C90.3303 284.052 90.4786 284.201 90.5798 284.38C90.7498 284.67 90.8998 284.95 91.0398 285.23C91.2972 285.777 91.5243 286.338 91.7198 286.91C92.0418 287.882 92.2433 288.889 92.3198 289.91C92.4569 290.853 92.318 291.815 91.9198 292.68C92.0135 291.769 92.0135 290.851 91.9198 289.94C91.7984 288.96 91.567 287.998 91.2298 287.07C91.0356 286.52 90.8085 285.983 90.5498 285.46C90.4098 285.19 90.2598 284.92 90.1098 284.65C90.0559 284.546 89.9739 284.459 89.8732 284.399C89.7725 284.339 89.6571 284.308 89.5398 284.31C89.4262 284.312 89.3153 284.346 89.2199 284.408C89.1245 284.47 89.0483 284.557 88.9998 284.66C88.8798 284.94 88.7598 285.23 88.6598 285.51C88.4607 286.061 88.2904 286.622 88.1498 287.19C87.9135 288.153 87.7497 289.133 87.6598 290.12C87.5598 291.8 87.6998 292.85 87.6198 292.86Z" fill="#263238"/>
<path d="M89.4399 284.69C90.112 285.823 90.5123 287.096 90.6095 288.409C90.7067 289.723 90.498 291.041 89.9999 292.26C89.8499 292.26 90.2599 290.54 90.0899 288.45C89.9199 286.36 89.2899 284.75 89.4399 284.69Z" fill="#263238"/>
<path d="M80 291.88C80.74 289.57 79.84 286.04 78.42 283.67C78.3383 283.534 78.2208 283.422 78.0802 283.348C77.9397 283.273 77.7814 283.239 77.6227 283.248C77.4639 283.258 77.3108 283.31 77.1798 283.4C77.0489 283.491 76.9452 283.615 76.88 283.76C75.7767 286.389 75.3636 289.256 75.68 292.09" fill="#E0E0E0"/>
<path d="M75.66 292.09C75.395 291.185 75.3034 290.239 75.39 289.3C75.4288 288.29 75.5594 287.286 75.78 286.3C75.91 285.74 76.07 285.15 76.27 284.56C76.38 284.26 76.5 283.97 76.63 283.66C76.7176 283.468 76.8582 283.304 77.0353 283.189C77.2125 283.074 77.4188 283.012 77.63 283.01C77.8351 283.012 78.0359 283.068 78.2117 283.174C78.3876 283.279 78.532 283.43 78.63 283.61C78.79 283.89 78.94 284.17 79.08 284.46C79.7925 285.924 80.2298 287.507 80.37 289.13C80.5173 290.074 80.3744 291.04 79.96 291.9C80.0639 290.993 80.0639 290.077 79.96 289.17C79.8351 288.188 79.6037 287.222 79.27 286.29C79.0739 285.741 78.8469 285.203 78.59 284.68C78.45 284.407 78.3 284.137 78.14 283.87C78.0897 283.765 78.01 283.677 77.9105 283.617C77.8111 283.556 77.6963 283.526 77.58 283.53C77.4658 283.53 77.354 283.563 77.2581 283.625C77.1623 283.687 77.0865 283.776 77.04 283.88C76.92 284.16 76.8 284.45 76.69 284.73C76.4954 285.281 76.3285 285.842 76.19 286.41C75.9538 287.376 75.79 288.359 75.7 289.35C75.6 291 75.75 292.08 75.66 292.09Z" fill="#263238"/>
<path d="M77.4796 283.92C78.1569 285.049 78.5611 286.32 78.66 287.632C78.759 288.945 78.55 290.262 78.0496 291.48C77.8996 291.48 78.3096 289.76 78.1396 287.67C77.9696 285.58 77.3396 284 77.4796 283.92Z" fill="#263238"/>
<path d="M60 313C60.74 310.69 59.84 307.15 58.41 304.79C58.3298 304.653 58.2134 304.541 58.0735 304.466C57.9336 304.392 57.7758 304.357 57.6174 304.366C57.4591 304.376 57.3064 304.428 57.1762 304.519C57.0461 304.61 56.9436 304.735 56.88 304.88C55.7767 307.506 55.3636 310.37 55.68 313.2" fill="#E0E0E0"/>
<path d="M55.6296 313.23C55.3505 312.332 55.2586 311.385 55.3596 310.45C55.3978 309.44 55.5283 308.436 55.7496 307.45C55.875 306.86 56.0386 306.279 56.2396 305.71C56.3496 305.41 56.4596 305.11 56.5996 304.81C56.6883 304.623 56.8272 304.463 57.0011 304.35C57.1749 304.237 57.3768 304.174 57.5842 304.169C57.7916 304.164 57.9963 304.216 58.1756 304.321C58.3549 304.425 58.5017 304.577 58.5996 304.76C58.7696 305.04 58.9196 305.32 59.0596 305.6C59.3195 306.146 59.5466 306.707 59.7396 307.28C60.0668 308.25 60.2684 309.259 60.3396 310.28C60.4913 311.201 60.3732 312.145 59.9996 313C60.0968 312.093 60.0968 311.177 59.9996 310.27C59.8747 309.288 59.6433 308.322 59.3096 307.39C59.1118 306.84 58.8814 306.303 58.6196 305.78C58.4896 305.51 58.3396 305.24 58.1796 304.97C58.1283 304.866 58.0483 304.779 57.9491 304.719C57.8499 304.658 57.7356 304.628 57.6196 304.63C57.5051 304.629 57.3927 304.661 57.2966 304.723C57.2005 304.786 57.125 304.875 57.0796 304.98C56.9496 305.26 56.8296 305.55 56.7296 305.83C56.5291 306.379 56.3621 306.941 56.2296 307.51C55.9884 308.472 55.8246 309.452 55.7396 310.44C55.5696 312.17 55.7096 313.22 55.6296 313.23Z" fill="#263238"/>
<path d="M57.45 305.07C58.1207 306.201 58.5211 307.472 58.6199 308.783C58.7188 310.095 58.5135 311.411 58.02 312.63C57.87 312.63 58.27 310.91 58.11 308.82C57.95 306.73 57.3 305.13 57.45 305.07Z" fill="#263238"/>
<path d="M91.5198 428.23C94.1298 427.32 97.0799 426.09 97.9099 423.45C98.1387 422.444 98.1209 421.397 97.858 420.4C97.595 419.402 97.0948 418.483 96.3999 417.72C93.3999 414.04 88.0299 412.84 83.3999 413.91C81.0128 414.402 78.8245 415.588 77.1099 417.32C76.2558 418.192 75.6091 419.246 75.2179 420.402C74.8266 421.559 74.7008 422.788 74.8498 424C74.9352 424.878 75.2602 425.715 75.7893 426.42C76.3183 427.126 77.0312 427.672 77.8498 428C79.2798 428.45 80.8499 428 82.2999 427.7C84.9233 427.238 87.6225 427.483 90.1199 428.41" fill="#263238"/>
<path d="M69.1797 391.59C69.3013 391.531 69.4286 391.484 69.5597 391.45L70.6897 391.08C71.6897 390.75 73.1097 390.26 74.8897 389.51C79.7683 387.441 84.2825 384.602 88.2597 381.1L89.2597 380.22L88.6097 381.38L84.3697 389.11C84.1986 389.416 84.1026 389.759 84.0897 390.11C84.0798 390.252 84.1222 390.392 84.2088 390.504C84.2955 390.617 84.4203 390.693 84.5597 390.72C85.3086 390.651 86.0278 390.393 86.6497 389.97C88.1079 389.22 89.4851 388.322 90.7597 387.29C92.2124 386.108 93.5273 384.766 94.6797 383.29L95.6797 381.95L95.0797 383.54C94.2389 385.763 93.6388 388.069 93.2897 390.42C93.125 391.53 93.0182 392.649 92.9697 393.77C92.8652 394.818 92.909 395.875 93.0997 396.91C93.1914 397.371 93.4428 397.786 93.8097 398.08C93.9907 398.201 94.199 398.274 94.4157 398.293C94.6323 398.312 94.8503 398.277 95.0497 398.19C95.8562 397.731 96.5632 397.115 97.1297 396.38C98.3697 395.01 99.4697 393.69 100.42 392.46C101.919 390.515 103.305 388.485 104.57 386.38L105.57 384.66C105.671 384.456 105.792 384.262 105.93 384.08C105.858 384.299 105.764 384.51 105.65 384.71C105.45 385.12 105.14 385.71 104.72 386.47C103.525 388.619 102.188 390.687 100.72 392.66C99.7797 393.92 98.7197 395.26 97.4497 396.66C96.8525 397.454 96.0964 398.115 95.2297 398.6C94.9647 398.716 94.675 398.763 94.387 398.739C94.0989 398.714 93.8214 398.619 93.5797 398.46C93.1267 398.107 92.8089 397.609 92.6797 397.05C92.4684 395.967 92.4112 394.859 92.5097 393.76C92.5097 392.64 92.6597 391.51 92.8197 390.36C93.1693 387.969 93.7727 385.623 94.6197 383.36L95.0597 383.61C93.888 385.117 92.5457 386.482 91.0597 387.68C89.7575 388.735 88.3501 389.653 86.8597 390.42C86.4897 390.62 86.1197 390.79 85.7497 390.96C85.3492 391.177 84.8926 391.267 84.4397 391.22C84.1874 391.167 83.9611 391.029 83.799 390.828C83.6368 390.628 83.5488 390.378 83.5497 390.12C83.5675 389.684 83.6801 389.258 83.8797 388.87L88.1797 381.15L88.5397 381.43C84.5249 384.946 79.9478 387.761 74.9997 389.76C73.61 390.322 72.1913 390.809 70.7497 391.22C70.2497 391.36 69.8597 391.45 69.5897 391.52C69.3197 391.59 69.1897 391.61 69.1797 391.59Z" fill="#263238"/>
<path d="M453.41 415.72L425.22 342.54L419.14 359.9L368.08 248.82L341.77 194.1L293.68 173.1L239 192.46C239 192.46 225.19 229.46 223.53 238.31C221.87 247.16 227.95 276.45 227.95 276.45L243.42 313.45L253.25 366.71C253.25 366.71 249.5 395.8 250.03 410.71C250.56 425.62 257.56 456.47 257.56 456.47H462.25L453.41 415.72Z" fill="#FF725E"/>
<g opacity="0.5">
<path d="M386.08 436.44C386.38 407.28 380.15 385.54 371.99 363.8C371.489 362.616 370.726 361.561 369.757 360.716C368.789 359.871 367.641 359.256 366.4 358.92C361.79 357.64 357.77 362 354.64 365.6C351.51 369.2 346.15 372.68 342.38 369.75C338.19 366.49 341.26 359.86 344.53 355.67C350.85 347.59 357.21 339.33 360.94 329.77C364.67 320.21 368.46 309.02 363.72 299.92C353.61 313.16 339.04 324.69 314.44 332.47C293.55 339.22 269.64 337.53 251.87 332.47C264.87 339.88 276.93 350.82 287.87 361.02C292.11 365.02 296.52 370.69 294.26 376.02C292.57 380.02 287.81 381.75 283.49 382.21C279.17 382.67 274.63 382.37 270.67 384.21C263.72 387.37 260.95 395.94 261 403.58C261.09 421.18 267.25 443.93 280.16 456.58H385.38C386.63 450.06 386 440.53 386.08 436.44Z" fill="white"/>
</g>
<path d="M362.63 309.3C362.63 309.3 362.5 309.4 362.22 309.55L361.01 310.17C360.48 310.43 359.83 310.76 359.1 311.17C358.37 311.58 357.51 312.01 356.61 312.56C354.78 313.62 352.67 314.99 350.4 316.63C345.508 320.212 341.098 324.41 337.28 329.12C335.723 331.045 334.264 333.048 332.91 335.12C332.31 335.99 331.84 336.83 331.4 337.54C330.96 338.25 330.6 338.88 330.31 339.4L329.63 340.58C329.47 340.85 329.38 340.99 329.36 340.98C329.403 340.827 329.464 340.68 329.54 340.54L330.13 339.3C330.39 338.77 330.72 338.12 331.13 337.39C331.54 336.66 332 335.81 332.58 334.92C333.899 332.806 335.338 330.769 336.89 328.82C338.801 326.441 340.862 324.187 343.06 322.07C345.27 319.983 347.607 318.036 350.06 316.24C352.083 314.785 354.19 313.449 356.37 312.24C357.28 311.7 358.15 311.29 358.9 310.91C359.65 310.53 360.32 310.22 360.9 309.99L362.16 309.46C362.31 309.39 362.468 309.336 362.63 309.3Z" fill="#263238"/>
<path d="M381.33 235.86C376.277 221.26 365.725 209.208 351.92 202.27C351.92 202.27 348.22 196.7 336.42 185.71C324.62 174.72 303 167.12 287.16 165.6C286.53 165.54 285.89 165.5 285.23 165.48C269.34 165.07 245.33 176.68 245.33 176.68C230.06 180.91 210.14 209.76 206.33 221.14C202.52 232.52 204.92 253.83 204.92 253.83C204.92 253.83 196.64 272.71 201.83 291.12C211 323.55 267 349.56 321.77 328.65C376.54 307.74 389.49 260.15 381.33 235.86Z" fill="#FF725E"/>
<g opacity="0.5">
<path d="M321.35 330.23C342.73 322.23 364.69 303.74 373.98 286.69C377.28 274.2 380.98 260.12 380.98 260.12L365.53 211.69C363.359 209.686 361.047 207.841 358.61 206.17C353.27 207 348.28 210.73 345.16 215.32C341.03 221.4 339.34 228.74 337.21 235.77C335.08 242.8 332.21 250.01 326.5 254.64C320.38 259.64 310.2 258.46 302.34 257.8C303.1 264.98 305.61 274.45 306.34 281.63L291.75 286.06C286.867 279.415 283.178 271.971 280.85 264.06C277.78 267.73 274.68 271.43 270.85 274.25C267.02 277.07 262.24 278.95 257.49 278.47C250.84 277.8 245.57 272.81 239.72 269.55C235.443 267.199 230.74 265.722 225.887 265.207C221.033 264.692 216.125 265.149 211.45 266.55C207.316 267.805 203.439 269.786 200 272.4C199.834 278.691 200.441 284.978 201.81 291.12C205.42 308.67 224.44 324.21 246.51 330.92C266.86 337.11 294.92 340.07 321.35 330.23Z" fill="white"/>
</g>
<path d="M305.74 277.65C301.965 277.696 298.233 278.456 294.74 279.89C291.228 281.348 288.323 283.967 286.51 287.31C285.605 288.923 285.287 290.799 285.61 292.62C286.41 296.09 290.11 297.92 293.39 299.29C296.67 300.66 300.49 302.14 304.07 301.24C306.76 300.57 308.96 298.66 310.86 296.64C313.42 293.92 315.75 290.64 315.92 286.92C316.09 283.2 314.35 277.58 305.74 277.65Z" fill="#263238"/>
<path d="M304.54 298.64C304.782 299.157 304.982 299.692 305.14 300.24C305.657 301.718 306.048 303.237 306.31 304.78C306.741 307.1 306.512 309.494 305.65 311.69C305.121 312.999 304.26 314.147 303.15 315.02C301.946 315.927 300.55 316.546 299.07 316.83C296.248 317.358 293.346 317.273 290.56 316.58C288.292 316.025 286.13 315.103 284.16 313.85C282.829 313.002 281.607 311.994 280.52 310.85C280.223 310.549 279.943 310.232 279.68 309.9C279.576 309.794 279.488 309.672 279.42 309.54C280.912 311.054 282.569 312.396 284.36 313.54C286.316 314.722 288.445 315.589 290.67 316.11C293.388 316.759 296.212 316.83 298.96 316.32C300.364 316.049 301.689 315.468 302.84 314.62C303.883 313.8 304.699 312.725 305.21 311.5C306.055 309.384 306.307 307.078 305.94 304.83C305.709 303.299 305.375 301.786 304.94 300.3C304.763 299.758 304.63 299.203 304.54 298.64Z" fill="#263238"/>
<path d="M305.56 302.47C305.56 302.37 306.13 302.69 307 303.3C308.213 304.179 309.471 304.994 310.77 305.74C312.706 306.806 314.862 307.412 317.07 307.51C319.764 307.743 322.453 307.013 324.66 305.45C326.796 303.789 328.421 301.561 329.35 299.02C330.117 296.94 330.608 294.768 330.81 292.56C331.01 290.67 331.07 289.13 331.13 288.07C331.132 287.514 331.176 286.959 331.26 286.41C331.332 286.96 331.356 287.516 331.33 288.07C331.33 289.14 331.33 290.69 331.18 292.6C331.022 294.852 330.558 297.073 329.8 299.2C328.863 301.84 327.186 304.156 324.97 305.87C322.654 307.512 319.826 308.267 317 308C314.727 307.877 312.517 307.216 310.55 306.07C309.253 305.289 308.01 304.42 306.83 303.47C306.432 303.106 306.007 302.772 305.56 302.47Z" fill="#263238"/>
<path d="M264.47 252.45C263.651 251.475 262.636 250.685 261.489 250.132C260.343 249.578 259.092 249.274 257.82 249.24C256.229 249.232 254.696 249.838 253.54 250.93C252.235 251.74 251.174 252.888 250.47 254.253C249.766 255.618 249.444 257.147 249.54 258.68C249.712 260.439 250.423 262.103 251.576 263.443C252.728 264.784 254.266 265.736 255.98 266.17C257.712 266.535 259.514 266.364 261.147 265.68C262.779 264.996 264.165 263.831 265.12 262.34C266.014 260.816 266.429 259.058 266.313 257.295C266.198 255.532 265.555 253.844 264.47 252.45Z" fill="#263238"/>
<path d="M324.61 237.64C323.827 236.715 322.847 235.978 321.741 235.483C320.635 234.988 319.431 234.748 318.22 234.78C316.616 234.823 315.05 235.285 313.68 236.12C312.373 236.928 311.311 238.075 310.606 239.441C309.901 240.806 309.581 242.337 309.68 243.87C309.852 245.629 310.562 247.291 311.715 248.63C312.868 249.969 314.407 250.919 316.12 251.35C317.85 251.715 319.65 251.545 321.28 250.863C322.911 250.18 324.296 249.018 325.25 247.53C326.145 246.007 326.563 244.25 326.449 242.487C326.334 240.724 325.694 239.035 324.61 237.64Z" fill="#263238"/>
<g opacity="0.5">
<path d="M257.56 213.11L255.56 212.11C248.83 210.2 241.92 216.87 237.86 222.11C236.524 223.618 235.704 225.513 235.52 227.52C235.52 230.22 237.52 232.52 239.84 233.94C244.5 236.67 250.41 236.37 255.54 234.67C257.67 233.96 259.85 232.92 261.04 231.01C261.863 229.506 262.247 227.801 262.15 226.09C262.1 221.374 260.485 216.809 257.56 213.11Z" fill="white"/>
</g>
<g opacity="0.5">
<path d="M303.28 201L305.28 200C312.01 198.09 318.92 204.76 322.98 210.06C324.325 211.558 325.147 213.454 325.32 215.46C325.32 218.17 323.32 220.52 321 221.88C316.35 224.62 310.43 224.32 305.31 222.61C303.17 221.9 300.99 220.86 299.8 218.96C298.975 217.454 298.594 215.744 298.7 214.03C298.731 209.297 300.343 204.711 303.28 201Z" fill="white"/>
</g>
<path d="M274.28 297.6C273.883 297.246 273.521 296.854 273.2 296.43C272.249 295.334 271.374 294.175 270.58 292.96C269.341 291.164 268.518 289.114 268.17 286.96C268.002 285.671 268.073 284.363 268.38 283.1C268.72 281.768 269.178 280.47 269.75 279.22C271.731 274.85 274.161 270.698 277 266.83L279.5 263.3C279.797 262.849 280.131 262.424 280.5 262.03C280.277 262.514 280.009 262.976 279.7 263.41C279.16 264.28 278.34 265.51 277.33 267.04C274.625 270.945 272.282 275.089 270.33 279.42C269.767 280.64 269.315 281.909 268.98 283.21C268.68 284.412 268.598 285.659 268.74 286.89C269.067 288.984 269.834 290.984 270.99 292.76C271.75 293.984 272.571 295.169 273.45 296.31C273.76 296.718 274.037 297.149 274.28 297.6Z" fill="#263238"/>
<path d="M332 275.93C331.942 275.379 331.922 274.824 331.94 274.27C331.945 272.767 331.784 271.268 331.46 269.8C331.226 268.802 330.816 267.854 330.25 267C329.584 266.039 328.695 265.253 327.66 264.71C326.499 264.099 325.275 263.617 324.01 263.27L319.93 262C314.34 260.26 309.29 258.67 305.64 257.49L301.32 256.06C300.784 255.907 300.263 255.709 299.76 255.47C300.309 255.561 300.851 255.695 301.38 255.87L305.75 257.13C309.42 258.22 314.5 259.77 320.09 261.5L324.17 262.77C325.462 263.142 326.712 263.648 327.9 264.28C328.99 264.871 329.921 265.719 330.61 266.75C331.189 267.652 331.599 268.651 331.82 269.7C332.114 271.201 332.222 272.733 332.14 274.26C332.14 274.8 332.09 275.26 332.06 275.5C332.03 275.74 332 275.94 332 275.93Z" fill="#263238"/>
<path d="M201.57 162.36C195.26 160.72 187.57 160.47 183.21 165.29C178.85 170.11 179.69 177.34 181.21 183.53C185.491 200.597 193.458 216.52 204.55 230.18L237.36 180.76C226.14 173.32 214.63 165.75 201.57 162.36Z" fill="#FF725E"/>
<g opacity="0.5">
<path d="M199.7 169.88C195.87 168.52 190.9 168.03 188.39 171.23C186.12 174.13 187.24 178.35 188.68 181.75C193.78 193.75 200.77 206.94 210.77 215.27C215.62 205.27 221.27 196.27 228.33 189.01C220.17 181.65 210.06 173.55 199.7 169.88Z" fill="white"/>
</g>
<path d="M217.56 203.18C217.21 202.902 216.891 202.587 216.61 202.24L214.16 199.59C212.01 197.27 209.16 194.23 206.02 190.86C202.88 187.49 200.02 184.33 198.02 182.02C197.02 180.86 196.22 179.92 195.69 179.25C195.389 178.922 195.124 178.564 194.9 178.18C195.247 178.454 195.562 178.766 195.84 179.11L198.29 181.77L206.43 190.5C209.62 193.91 212.43 197.03 214.43 199.34C215.43 200.49 216.22 201.44 216.76 202.11C217.06 202.44 217.328 202.799 217.56 203.18Z" fill="#263238"/>
<path d="M331.06 138.07C328.44 132.25 324.52 126 318.22 124.96C311.92 123.92 305.93 128.84 302 134C293.85 144.75 289.49 157.82 285.27 170.63L338.71 188.7C337.25 170.27 338.25 154.05 331.06 138.07Z" fill="#FF725E"/>
<g opacity="0.5">
<path d="M308.11 138.78C310.28 135.34 313.88 131.88 317.83 132.84C321.41 133.71 323.14 137.72 324.11 141.27C327.52 153.83 330.18 168.01 327.49 180.74C319.02 175.74 309.13 172.16 298.49 169.26C300.29 158.43 302.25 148.08 308.11 138.78Z" fill="white"/>
</g>
<path d="M314.8 174.63C314.737 174.206 314.72 173.777 314.75 173.35C314.75 172.53 314.75 171.35 314.86 169.88C314.99 166.95 315.28 162.88 315.66 158.44C316.04 154 316.36 150.06 316.61 147.03C316.72 145.65 316.81 144.49 316.88 143.57C316.893 143.143 316.946 142.717 317.04 142.3C317.086 142.725 317.086 143.155 317.04 143.58C317.04 144.4 317.04 145.58 316.93 147.05C316.8 149.99 316.51 154.05 316.13 158.49C315.75 162.93 315.43 166.87 315.18 169.9C315.07 171.28 314.98 172.44 314.91 173.36C314.92 173.786 314.883 174.212 314.8 174.63Z" fill="#263238"/>
<path d="M362.63 301.52C362.449 301.912 362.228 302.284 361.97 302.63C361.249 303.641 360.446 304.59 359.57 305.47C358.46 306.63 357.03 307.99 355.3 309.47C354.44 310.22 353.5 311.01 352.49 311.83L349.35 314.47C344.115 318.74 338.447 322.451 332.44 325.54C325.076 329.322 317.278 332.194 309.22 334.09C301.159 335.969 292.916 336.954 284.64 337.03C277.886 337.087 271.141 336.555 264.48 335.44C259.991 334.683 255.56 333.614 251.22 332.24C249.7 331.73 248.51 331.33 247.73 331.01L246.83 330.65L246.53 330.52C246.639 330.536 246.746 330.562 246.85 330.6L247.76 330.91C248.56 331.2 249.76 331.57 251.28 332.05C255.63 333.335 260.06 334.337 264.54 335.05C271.182 336.113 277.903 336.608 284.63 336.53C292.871 336.414 301.075 335.408 309.1 333.53C317.117 331.643 324.879 328.803 332.22 325.07C338.208 322.007 343.87 318.345 349.12 314.14L355.12 309.2C356.86 307.72 358.31 306.39 359.44 305.26C360.322 304.397 361.144 303.475 361.9 302.5C362.4 301.9 362.61 301.5 362.63 301.52Z" fill="#263238"/>
<g opacity="0.5">
<path d="M305.73 280.2C302.993 280.076 300.27 280.654 297.819 281.879C295.369 283.104 293.273 284.936 291.73 287.2C291.52 287.44 291.37 287.727 291.294 288.037C291.217 288.346 291.216 288.67 291.29 288.98C291.423 289.242 291.634 289.456 291.893 289.594C292.153 289.732 292.448 289.786 292.74 289.75C293.321 289.675 293.88 289.477 294.38 289.17L304.92 283.68C305.633 283.394 306.24 282.894 306.66 282.25C307.01 281.57 306.74 280.53 305.99 280.39" fill="white"/>
</g>
<path d="M331.35 183C330.872 182.807 330.413 182.569 329.98 182.29C329.13 181.8 327.88 181.1 326.32 180.29C318.229 175.902 309.659 172.463 300.78 170.04C299.08 169.57 297.7 169.21 296.78 168.97C296.273 168.876 295.778 168.732 295.3 168.54C295.812 168.576 296.32 168.652 296.82 168.77C297.82 168.95 299.2 169.25 300.92 169.68C309.876 171.941 318.482 175.413 326.5 180C328.04 180.88 329.26 181.63 330.09 182.18C330.532 182.417 330.954 182.691 331.35 183Z" fill="#263238"/>
<path d="M318.58 311.15C318.15 311.673 317.64 312.125 317.07 312.49C315.774 313.468 314.407 314.347 312.98 315.12C311.554 315.893 310.073 316.562 308.55 317.12C307.929 317.39 307.272 317.569 306.6 317.65C306.55 317.5 309.43 316.47 312.73 314.65C316.03 312.83 318.48 311 318.58 311.15Z" fill="#263238"/>
<path d="M232.24 185.85C231.91 186.295 231.539 186.707 231.13 187.08C230.38 187.85 229.32 188.97 228.04 190.39C221.359 197.751 215.747 206.015 211.37 214.94C210.53 216.65 209.87 218.05 209.43 219.02C209.229 219.537 208.985 220.035 208.7 220.51C208.84 219.976 209.024 219.454 209.25 218.95C209.63 217.95 210.25 216.52 211.04 214.78C215.256 205.721 220.906 197.401 227.77 190.14C229.09 188.75 230.19 187.66 230.98 186.94C231.372 186.546 231.793 186.182 232.24 185.85Z" fill="#263238"/>
<path d="M440.63 436.11C440.63 436.11 440.43 436.11 440.05 435.98L438.37 435.53C436.91 435.12 434.77 434.53 432.08 433.53C424.615 430.964 417.398 427.724 410.52 423.85L410.78 423.5C416.152 428.767 420.894 434.639 424.91 441L425.39 441.78L424.58 441.36C419.605 438.834 414.912 435.787 410.58 432.27C406.462 428.927 402.683 425.186 399.3 421.1L399.73 420.83L407.53 439.34L407.84 440.08L407.19 439.62C400.103 434.585 394.018 428.27 389.25 421C387.424 418.264 385.847 415.369 384.54 412.35L384.63 412.49C384.69 412.61 384.76 412.75 384.86 412.93L385.74 414.62C386.54 416.1 387.74 418.25 389.47 420.85C394.272 428.048 400.357 434.302 407.42 439.3L407.08 439.57C404.69 433.94 402.08 427.72 399.24 421.08L398.56 419.48L399.67 420.82C406.589 429.178 415.144 436.031 424.81 440.96L424.48 441.32C420.493 434.986 415.796 429.129 410.48 423.86L409.3 422.7L410.74 423.52C417.585 427.404 424.752 430.693 432.16 433.35C434.84 434.3 436.96 434.97 438.41 435.43L440.06 435.94L440.63 436.11Z" fill="#263238"/>
<path d="M364 291.63C363.19 298.63 361 308.28 360.66 315.25L364.57 309.3C365.74 327.48 368.57 349.95 371.16 367.98" fill="#FF725E"/>
<path d="M371.2 368C371.166 367.927 371.146 367.85 371.14 367.77C371.14 367.59 371.06 367.37 371.02 367.1C370.91 366.47 370.77 365.6 370.6 364.51C370.25 362.26 369.77 359 369.21 354.96C368.1 346.89 366.66 335.72 365.48 323.34C365.02 318.45 364.64 313.73 364.36 309.34L364.82 309.46C363.44 311.53 362.13 313.52 360.89 315.4L360.42 316.1L360.47 315.26C360.684 312.011 361.074 308.776 361.64 305.57C362.14 302.72 362.58 300.22 362.94 298.14C363.3 296.06 363.58 294.46 363.75 293.35C363.83 292.83 363.9 292.41 363.95 292.08C363.968 291.934 363.998 291.791 364.04 291.65C364.064 291.796 364.064 291.944 364.04 292.09C364.04 292.38 363.98 292.81 363.91 293.37C363.79 294.49 363.56 296.12 363.23 298.19C362.9 300.26 362.5 302.77 362.04 305.63C361.506 308.825 361.142 312.046 360.95 315.28L360.53 315.14L364.42 309.19L364.83 308.57L364.88 309.31C365.17 313.69 365.56 318.4 366.02 323.31C367.2 335.68 368.58 346.85 369.6 354.93C370.11 358.93 370.52 362.2 370.82 364.5C370.95 365.6 371.06 366.5 371.14 367.11L371.21 367.79C371.214 367.86 371.211 367.93 371.2 368Z" fill="#263238"/>
<g opacity="0.3">
<path d="M385 412.91C382.14 405.6 381 398.63 378.12 391.31C379.07 405.26 385.42 418.21 392.03 430.53C394.076 434.681 396.596 438.58 399.54 442.15C402.6 445.61 406.54 448.44 411.12 449.32C411.936 449.56 412.813 449.478 413.57 449.09C415.02 448.14 414.44 445.9 413.57 444.39C412.7 442.88 411.11 436.64 411.11 436.64C418.51 441.82 429.11 448.01 438.06 448.95C435.68 445.143 433.307 441.33 430.94 437.51C433.549 438.874 436.412 439.681 439.348 439.881C442.285 440.081 445.231 439.668 448 438.67C436.65 434.28 423.15 429.27 411.81 424.88C416.743 429.77 421.065 435.24 424.68 441.17C416 437.17 405.12 429.86 399.46 420.96C402.79 428.4 406.32 436.45 407.03 439.49C396.66 431.49 389.13 423.98 384.53 411.75" fill="black"/>
</g>
<path d="M355.05 242.71C355.052 248.33 355.669 253.934 356.89 259.42C362.75 285.74 372.94 365.42 373.77 366.42C374.77 367.62 438.6 369.75 438.6 369.75L428.16 356.36L437.32 359.36C437.32 359.36 435.64 356.77 428.16 350.11C418.16 341.21 404.01 232.45 404.01 232.45C405.83 217.6 407.65 202.71 407.51 187.76C407.37 172.81 405.2 157.76 399.31 143.89C397.547 139.362 394.983 135.189 391.74 131.57C388.37 128.04 384.27 128.19 379.53 126.68C371.03 123.98 365.6 127.86 361.23 132.78C358.23 136.13 358.01 140.06 356.23 144.15C354.307 145.642 352.869 147.671 352.1 149.98C349.52 156.83 347.48 163.98 347.19 171.25C346.9 178.52 348.61 186.09 353.19 191.88L348.84 189.48L356.77 198.18L354.77 201.99C353.548 204.22 353.055 206.776 353.36 209.3L356.64 205.82C354.64 209.99 354.4 213.99 353.73 220.29C353.42 223.11 353.26 225.95 353.22 228.78L353.08 238.65L354.99 237.05L355.05 242.71Z" fill="#FF725E"/>
<g opacity="0.5">
<path d="M379.7 251.3C386.36 251.15 393.5 254.08 397.42 259.3C399.56 262.16 400.28 265.76 400.95 269.24C404.15 286 407.353 302.757 410.56 319.51C413.76 336.27 416.96 353.05 419.08 369.97C420.14 378.4 420.84 387.34 417.08 395.03C415.65 397.97 413.37 400.79 410.15 401.7C406.58 402.7 402.66 401.07 400.07 398.48C397.48 395.89 395.96 392.48 394.56 389.15C387.63 372.235 381.948 354.835 377.56 337.09C370.39 309 370.95 294.51 368.14 265.71C368.22 265.72 367.84 251.56 379.7 251.3Z" fill="white"/>
</g>
<path d="M374 133.46C372.11 131.74 368.94 131.91 366.82 133.36C364.791 134.922 363.398 137.168 362.9 139.68C362.359 141.639 362.325 143.704 362.8 145.68C363.05 146.681 363.505 147.62 364.137 148.436C364.768 149.252 365.563 149.928 366.47 150.42C367.397 150.908 368.443 151.129 369.488 151.056C370.534 150.984 371.539 150.622 372.39 150.01C373.87 148.83 374.48 146.92 374.88 145.1C375.66 141.54 376.76 135.81 374 133.41" fill="#263238"/>
<path d="M357.38 151.11C357.06 151.11 353.07 151.81 351.63 157C350.19 162.19 349.57 168.68 353.68 169.18C357.79 169.68 361.49 169.47 362 164.09C362.51 158.71 360.67 151 357.38 151.11Z" fill="#263238"/>
<path d="M386.67 135.33C386.43 135.33 382.6 134.56 380.85 137.98C379.1 141.4 376.6 147.34 378.54 151.11C380.48 154.88 385.03 159.25 388.61 154.01C392.19 148.77 392.73 143.28 392.01 140.57C391.29 137.86 386.67 135.33 386.67 135.33Z" fill="#263238"/>
<path d="M396.83 159C396.31 159.08 386.75 164 385.06 168.68C383.37 173.36 384.6 174.16 388.4 176.56C390.165 177.677 392.299 178.051 394.339 177.601C396.378 177.152 398.158 175.915 399.29 174.16C401.86 170.57 403.3 157.9 396.83 159Z" fill="#263238"/>
<g opacity="0.5">
<path d="M381 188.14C380.29 186.84 378.85 186.31 377.53 185.88L369.13 183.14C367.45 182.59 365.44 182.14 364.13 183.41L362.13 183.96C362.237 187.077 362.656 190.176 363.38 193.21C364.075 196.177 365.697 198.846 368.01 200.83C369.11 201.751 370.465 202.316 371.893 202.45C373.322 202.584 374.758 202.28 376.01 201.58C378.6 199.97 379.81 196.58 380.83 193.5C381.32 191.76 381.87 189.73 381 188.14Z" fill="white"/>
</g>
<path d="M370.71 167.85C369.07 169.9 366.35 170.76 363.81 171.6C361.27 172.44 358.58 173.49 357.2 175.72C356.658 176.731 356.343 177.847 356.275 178.992C356.208 180.137 356.39 181.283 356.81 182.35C357.258 183.946 358.27 185.325 359.66 186.23C362.31 187.75 365.73 186.49 368.75 187.08C373.13 187.94 375.92 192.51 380.28 193.51C384.02 194.37 388.02 192.17 390 188.96C390.548 188.161 390.924 187.257 391.105 186.305C391.286 185.353 391.267 184.374 391.05 183.43C390.34 181.04 388.05 179.51 385.79 178.29C383.53 177.07 381.15 175.81 379.99 173.6C379.467 172.335 379.069 171.022 378.8 169.68C378.655 169.003 378.374 168.363 377.973 167.799C377.573 167.235 377.061 166.759 376.47 166.4C374.61 165.49 372.34 166.55 370.87 167.98" fill="#263238"/>
<g opacity="0.3">
<path d="M382.94 238.18C381.18 236.12 379.35 234.12 377.45 232.18L368.71 237C369.914 239.354 371.667 241.385 373.82 242.92C374.917 243.683 376.166 244.198 377.482 244.43C378.798 244.661 380.149 244.603 381.44 244.26C382.96 243.79 384.44 242.57 384.39 241.03C384.251 239.941 383.739 238.933 382.94 238.18Z" fill="black"/>
</g>
<path d="M376.75 231.94C375.841 231.572 374.86 231.414 373.881 231.48C372.902 231.546 371.951 231.833 371.1 232.32C370.272 232.81 369.609 233.537 369.197 234.406C368.786 235.276 368.644 236.249 368.79 237.2C369.213 238.78 370.23 240.134 371.63 240.98C372.922 241.837 374.371 242.428 375.894 242.718C377.418 243.009 378.983 242.992 380.5 242.67C382.08 242.33 383.76 241.43 384.03 239.89C384.032 238.586 383.599 237.319 382.8 236.29C381.199 234.335 379.113 232.835 376.75 231.94Z" fill="#263238"/>
<path d="M381.69 224.48C381.69 224.48 381.56 224.41 381.36 224.24C381.16 224.07 380.84 223.82 380.47 223.47C379.401 222.488 378.399 221.436 377.47 220.32C374.416 216.628 372.119 212.37 370.71 207.79L371.22 207.72C371.22 209.11 371.15 210.47 371.11 211.78C371.11 212.44 371.11 213.08 371.05 213.71V214.65C371.064 214.992 371.006 215.332 370.88 215.65C370.809 215.828 370.695 215.985 370.55 216.11C370.463 216.174 370.364 216.219 370.259 216.243C370.155 216.267 370.046 216.269 369.94 216.25C369.771 216.201 369.614 216.118 369.478 216.007C369.342 215.895 369.23 215.757 369.15 215.6C368.84 215.11 368.54 214.6 368.29 214.15C367.819 213.263 367.417 212.34 367.09 211.39C366.622 210.012 366.326 208.581 366.21 207.13C366.189 206.737 366.189 206.343 366.21 205.95C366.187 205.814 366.187 205.676 366.21 205.54C366.388 207.489 366.801 209.41 367.44 211.26C367.782 212.186 368.193 213.086 368.67 213.95C368.93 214.41 369.22 214.87 369.53 215.35C369.84 215.83 370.25 215.98 370.44 215.47C370.571 214.897 370.622 214.308 370.59 213.72C370.59 213.09 370.59 212.44 370.59 211.79C370.59 210.47 370.65 209.11 370.69 207.72V206.12L371.16 207.65C372.554 212.173 374.774 216.398 377.71 220.11C378.83 221.53 379.83 222.61 380.53 223.35C380.945 223.697 381.333 224.074 381.69 224.48Z" fill="#263238"/>
<path d="M382.53 162.85C382.08 162.393 381.675 161.894 381.32 161.36L378.25 157.21L378.62 157.1C378.62 158.56 378.55 160.19 378.51 161.93V162.54L378.1 162.09C377.012 160.887 376.194 159.465 375.7 157.92H376.18C375.86 158.65 375.52 159.41 375.18 160.19L374.26 162.24L374.09 162.62L373.83 162.3C373.268 161.61 372.901 160.783 372.766 159.905C372.631 159.026 372.732 158.127 373.06 157.3L373.43 157.58C371.773 158.873 369.982 159.986 368.09 160.9L367.63 161.13L367.84 160.67C368.418 159.399 369.217 158.242 370.2 157.25C370.461 156.979 370.742 156.729 371.04 156.5C371.24 156.34 371.35 156.27 371.37 156.28C371.39 156.29 370.98 156.67 370.37 157.39C369.466 158.405 368.733 159.56 368.2 160.81L367.95 160.58C369.786 159.62 371.527 158.488 373.15 157.2L373.87 156.63L373.53 157.48C373.246 158.222 373.162 159.025 373.287 159.81C373.411 160.595 373.74 161.333 374.24 161.95L373.81 162.01L374.72 159.96L375.72 157.69L376 157.07L376.2 157.71C376.672 159.186 377.445 160.548 378.47 161.71L378.05 161.86C378.12 160.11 378.18 158.49 378.24 157.03V156.42L378.58 156.91L381.51 161.17C381.889 161.705 382.23 162.267 382.53 162.85Z" fill="#263238"/>
<path d="M373.76 127.74C373.461 127.521 373.1 127.402 372.73 127.402C372.359 127.402 371.998 127.521 371.7 127.74C371.41 127.909 371.159 128.137 370.962 128.409C370.766 128.681 370.629 128.992 370.56 129.32C370.517 129.481 370.518 129.651 370.564 129.811C370.61 129.971 370.698 130.116 370.82 130.23C370.996 130.373 371.2 130.478 371.418 130.54C371.636 130.602 371.865 130.619 372.09 130.59C372.439 130.581 372.783 130.494 373.094 130.334C373.406 130.175 373.678 129.948 373.89 129.67C374.103 129.386 374.207 129.035 374.184 128.681C374.16 128.326 374.009 127.993 373.76 127.74Z" fill="#E0E0E0"/>
<path d="M389.7 132.9C389.388 132.109 388.826 131.442 388.1 131C388.02 130.939 387.928 130.895 387.829 130.873C387.731 130.85 387.629 130.849 387.53 130.87C387.37 130.93 387.01 131.05 386.92 131.19C386.783 131.391 386.692 131.62 386.652 131.86C386.613 132.1 386.626 132.345 386.69 132.58C386.882 133.047 387.219 133.439 387.651 133.698C388.084 133.958 388.588 134.071 389.09 134.02C389.328 134.006 389.551 133.898 389.71 133.72C389.778 133.594 389.812 133.452 389.811 133.309C389.809 133.165 389.771 133.025 389.7 132.9Z" fill="#E0E0E0"/>
<g opacity="0.3">
<path d="M365.28 316.82C363.216 333.123 365.254 349.684 371.21 365C370.06 348.41 367.21 332.83 365.81 315.78" fill="black"/>
</g>
<g opacity="0.3">
<path d="M380.37 223.62C376.452 219.044 373.289 213.872 371 208.3C371.179 210.415 371.068 212.545 370.67 214.63C370.61 215.06 370.67 215.94 370.22 216.02C369.77 216.1 369.22 215.35 369.03 215.02C367.461 212.646 366.471 209.937 366.14 207.11L365.93 208.03C365.704 209.714 365.846 211.427 366.345 213.051C366.844 214.676 367.688 216.173 368.82 217.44C369.042 217.737 369.328 217.981 369.657 218.154C369.986 218.327 370.349 218.425 370.72 218.44C371.075 218.382 371.405 218.222 371.67 217.978C371.935 217.735 372.123 217.419 372.21 217.07C372.355 216.374 372.355 215.656 372.21 214.96C372.831 216.925 373.887 218.724 375.3 220.223C376.713 221.722 378.446 222.884 380.37 223.62Z" fill="black"/>
</g>
<path d="M395.78 310.27C395.621 310.174 395.473 310.06 395.34 309.93C395.07 309.7 394.65 309.36 394.16 308.88C392.729 307.54 391.393 306.104 390.16 304.58C385.993 299.469 382.965 293.526 381.28 287.15L381.79 287.06C381.86 287.91 381.93 288.82 382.01 289.73C382.276 293.661 382.336 297.603 382.19 301.54V302.25L381.79 301.67C379.176 298.019 377.217 293.942 376 289.62C375.656 288.393 375.382 287.148 375.18 285.89C375.11 285.45 375.08 285.11 375.05 284.89C375.039 284.774 375.039 284.656 375.05 284.54C375.184 284.976 375.288 285.42 375.36 285.87C375.54 286.74 375.83 288 376.3 289.55C377.58 293.791 379.546 297.794 382.12 301.4L381.68 301.53C381.79 297.92 381.74 293.94 381.46 289.78C381.38 288.87 381.31 287.97 381.25 287.12L381.75 287.03C383.419 293.342 386.367 299.244 390.41 304.37C391.608 305.906 392.897 307.368 394.27 308.75C394.74 309.25 395.14 309.61 395.39 309.87C395.532 309.991 395.663 310.125 395.78 310.27Z" fill="#263238"/>
<path d="M437.9 390.59C438.019 391.015 438.092 391.45 438.12 391.89C438.23 392.74 438.32 393.96 438.39 395.47C438.717 403.396 437.567 411.314 435 418.82C434.51 420.25 434.06 421.4 433.72 422.17C433.572 422.587 433.377 422.986 433.14 423.36C433.229 422.929 433.36 422.507 433.53 422.1C433.81 421.3 434.2 420.1 434.65 418.7C435.822 414.951 436.698 411.116 437.27 407.23C437.825 403.339 438.079 399.41 438.03 395.48C438.03 393.98 437.96 392.75 437.91 391.91C437.866 391.471 437.863 391.029 437.9 390.59Z" fill="#263238"/>
</svg>
